<svg aria-hidden="true" style="position: absolute; width: 0; height: 0; overflow: hidden;" version="1.1" xmlns="http://www.w3.org/2000/svg" xmlns:xlink="http://www.w3.org/1999/xlink">
<defs>
<symbol id="icon-play-btn" viewBox="0 0 28 32">
<path d="M26.088 12.891c2.441 1.354 2.441 4.864 0 6.218l-21.155 11.739c-2.37 1.315-5.281-0.399-5.281-3.109v-23.477c0-2.71 2.911-4.424 5.281-3.109l21.155 11.739z"></path>
</symbol>
 <symbol id="icon-menu-link" viewBox="0 0 32 32">
<path d="M4.799 8.001c0-0.424 0.169-0.831 0.469-1.131s0.707-0.469 1.131-0.469h19.2c0.424 0 0.831 0.169 1.131 0.469s0.469 0.707 0.469 1.131-0.169 0.831-0.469 1.131c-0.3 0.3-0.707 0.469-1.131 0.469h-19.2c-0.424 0-0.831-0.169-1.131-0.469s-0.469-0.707-0.469-1.131z"></path>
<path d="M4.799 16.001c0-0.424 0.169-0.831 0.469-1.131s0.707-0.469 1.131-0.469h19.2c0.424 0 0.831 0.169 1.131 0.469s0.469 0.707 0.469 1.131c0 0.424-0.169 0.831-0.469 1.131s-0.707 0.469-1.131 0.469h-19.2c-0.424 0-0.831-0.169-1.131-0.469s-0.469-0.707-0.469-1.131z"></path>
<path d="M4.799 24.001c0-0.424 0.169-0.831 0.469-1.131s0.707-0.469 1.131-0.469h19.2c0.424 0 0.831 0.169 1.131 0.469s0.469 0.707 0.469 1.131c0 0.424-0.169 0.831-0.469 1.131s-0.707 0.469-1.131 0.469h-19.2c-0.424 0-0.831-0.169-1.131-0.469s-0.469-0.707-0.469-1.131z"></path>
</symbol>
<symbol id="icon-button-play" viewBox="0 0 29 32">
<path d="M27.343 14.302c1.269 0.728 1.269 2.558 0 3.287l-23.642 13.57c-1.263 0.725-2.838-0.187-2.838-1.643v-27.14c0-1.456 1.575-2.368 2.838-1.643l23.642 13.57z"></path>
</symbol>
<symbol id="icon-heard" viewBox="0 0 34 32">
<path d="M17.067 30.103c0.305 0 0.61-0.114 0.838-0.343l11.867-11.429c0.171-0.171 4.362-4 4.362-8.571 0-5.581-3.41-8.914-9.105-8.914-3.333 0-6.457 2.629-7.962 4.114-1.505-1.486-4.629-4.114-7.962-4.114-5.695 0-9.105 3.333-9.105 8.914 0 4.571 4.191 8.4 4.343 8.533l11.886 11.467c0.229 0.229 0.533 0.343 0.838 0.343z"></path>
</symbol>
<symbol id="icon-figure" viewBox="0 0 41 32">
<path d="M21.673 12.824l2.674 1.245 3.98-1.184v-2.776c0-4.714-3.98-8.49-8.735-8.49-4.735 0-8.735 3.755-8.735 8.429v12.653c0 1.163-0.939 2.082-2.082 2.082s-2.082-0.918-2.082-2.082v-5.347h-6.694c0 5.367 0 5.429 0 5.429 0 4.837 3.918 8.755 8.755 8.755 4.796 0 8.755-3.857 8.755-8.633v-12.49c0-1.143 0.939-2.082 2.082-2.082s2.082 0.939 2.082 2.082v2.408zM32.49 17.355v5.612c0 1.143-0.939 2.061-2.082 2.061s-2.082-0.918-2.082-2.061v-5.51l-3.98 1.184-2.674-1.245v5.469c0 4.796 3.939 8.673 8.755 8.673 4.837 0 8.755-3.918 8.755-8.755 0 0 0-0.061 0-5.429h-6.694z"></path>
</symbol>
<symbol id="icon-time" viewBox="0 0 26 32">
<path d="M23.664 2.628h1.614c0.302 0 0.538-0.235 0.538-0.538v-1.076c0-0.303-0.235-0.538-0.538-0.538h-24.74c-0.303 0-0.538 0.235-0.538 0.538v1.076c0 0.303 0.235 0.538 0.538 0.538h1.613c0 6.218 2.975 10.723 6.269 12.908-3.294 2.185-6.269 6.689-6.269 12.908h-1.613c-0.303 0-0.538 0.235-0.538 0.538v1.076c0 0.302 0.235 0.538 0.538 0.538h24.74c0.302 0 0.538-0.235 0.538-0.538v-1.076c0-0.302-0.235-0.538-0.538-0.538h-1.614c0-6.218-2.975-10.723-6.269-12.908 3.294-2.185 6.269-6.689 6.269-12.908zM21.513 2.628c0 2.454-0.555 4.622-1.429 6.454h-14.353c-0.874-1.832-1.429-4-1.429-6.454h17.21zM20.555 23.065h-15.294c1.244-3.244 3.479-5.546 5.714-6.454h3.866c2.235 0.908 4.471 3.21 5.714 6.454z"></path>
</symbol>
<symbol id="icon-cursor" viewBox="0 0 21 32">
<path d="M19.042 18.007l-17.21-17.21c-0.202-0.219-0.471-0.319-0.756-0.319-0.134 0-0.286 0.034-0.403 0.084-0.403 0.168-0.672 0.555-0.672 0.992v25.277c0 0.437 0.269 0.824 0.672 0.992 0.118 0.050 0.269 0.084 0.403 0.084 0.286 0 0.555-0.118 0.756-0.319l5.244-5.244 3.21 7.597c0.235 0.538 0.857 0.807 1.412 0.571l2.975-1.26c0.538-0.235 0.807-0.857 0.571-1.412l-3.378-8h6.42c0.437 0 0.824-0.269 0.992-0.672 0.168-0.387 0.084-0.857-0.235-1.16z"></path>
</symbol>
<symbol id="icon-check-mark" viewBox="0 0 39 32">
<path d="M38.808 1.462c-0.769-0.785-2.016-0.785-2.785 0l-23.593 24.095-9.069-9.262c-0.769-0.785-2.016-0.785-2.785 0s-0.769 2.059 0 2.844l10.461 10.683c0.769 0.785 2.016 0.785 2.785 0l24.985-25.516c0.769-0.785 0.769-2.059 0-2.844z"></path>
</symbol>
<symbol id="icon-product-usage-icon-01" viewBox="0 0 32 32">
<path fill="#d6b1ff" style="fill: var(--color1, #d6b1ff)" d="M24 13.333h8l-4-5.333-4 5.333zM24 18.667h8l-4 5.333-4-5.333z"></path>
<path fill="#02897a" style="fill: var(--color2, #02897a)" d="M1.333 0h8v32h-8c-0.354 0-0.693-0.141-0.943-0.391s-0.391-0.589-0.391-0.943v-29.333c0-0.354 0.14-0.693 0.391-0.943s0.589-0.391 0.943-0.391z"></path>
<path fill="#02897a" style="fill: var(--color2, #02897a)" d="M12 0h8c0.354 0 0.693 0.14 0.943 0.391s0.391 0.589 0.391 0.943v29.333c0 0.354-0.141 0.693-0.391 0.943s-0.589 0.391-0.943 0.391h-8v-32z"></path>
</symbol>
<symbol id="icon-product-usage-icon-02" viewBox="0 0 32 32">
<path fill="#d6b1ff" style="fill: var(--color1, #d6b1ff)" d="M28 32h-12c-0.354 0-0.693-0.141-0.943-0.391s-0.391-0.589-0.391-0.943v-2.667c0-0.354 0.141-0.693 0.391-0.943s0.589-0.391 0.943-0.391h12c0.354 0 0.693 0.141 0.943 0.391s0.391 0.589 0.391 0.943v2.667c0 0.354-0.141 0.693-0.391 0.943s-0.589 0.391-0.943 0.391z"></path>
<path fill="#11b5e4" style="fill: var(--color3, #11b5e4)" d="M28 0h-24c-0.354 0-0.693 0.14-0.943 0.391s-0.391 0.589-0.391 0.943v2.667c0 0.354 0.14 0.693 0.391 0.943s0.589 0.391 0.943 0.391h24c0.354 0 0.693-0.14 0.943-0.391s0.391-0.589 0.391-0.943v-2.667c0-0.354-0.141-0.693-0.391-0.943s-0.589-0.391-0.943-0.391z"></path>
<path fill="#11b5e4" style="fill: var(--color3, #11b5e4)" d="M28 8h-24c-0.354 0-0.693 0.14-0.943 0.391s-0.391 0.589-0.391 0.943v13.333c0 0.354 0.14 0.693 0.391 0.943s0.589 0.391 0.943 0.391h24c0.354 0 0.693-0.141 0.943-0.391s0.391-0.589 0.391-0.943v-13.333c0-0.354-0.141-0.693-0.391-0.943s-0.589-0.391-0.943-0.391z"></path>
</symbol>
<symbol id="icon-product-usage-icon-03" viewBox="0 0 33 32">
<path fill="#d6b1ff" style="fill: var(--color1, #d6b1ff)" d="M6.902 1.333h-4c-0.354 0-0.693 0.14-0.943 0.391s-0.391 0.589-0.391 0.943v26.667c0 0.354 0.14 0.693 0.391 0.943s0.589 0.391 0.943 0.391h4v-29.333z"></path>
<path fill="#f03e3d" style="fill: var(--color4, #f03e3d)" d="M9.569 30.667h13.333v-29.333h-13.333v29.333zM16.236 25.333c-0.354 0-0.693-0.141-0.943-0.391s-0.391-0.589-0.391-0.943 0.14-0.693 0.391-0.943c0.25-0.25 0.589-0.391 0.943-0.391s0.693 0.141 0.943 0.391c0.25 0.25 0.391 0.589 0.391 0.943s-0.141 0.693-0.391 0.943c-0.25 0.25-0.589 0.391-0.943 0.391zM16.236 6.667c0.354 0 0.693 0.14 0.943 0.391s0.391 0.589 0.391 0.943-0.141 0.693-0.391 0.943c-0.25 0.25-0.589 0.391-0.943 0.391s-0.693-0.14-0.943-0.391c-0.25-0.25-0.391-0.589-0.391-0.943s0.14-0.693 0.391-0.943c0.25-0.25 0.589-0.391 0.943-0.391zM16.236 14.667c0.354 0 0.693 0.141 0.943 0.391s0.391 0.589 0.391 0.943-0.141 0.693-0.391 0.943c-0.25 0.25-0.589 0.391-0.943 0.391s-0.693-0.141-0.943-0.391c-0.25-0.25-0.391-0.589-0.391-0.943s0.14-0.693 0.391-0.943c0.25-0.25 0.589-0.391 0.943-0.391z"></path>
<path fill="#f03e3d" style="fill: var(--color4, #f03e3d)" d="M29.569 1.333h-4v29.333h4c0.354 0 0.693-0.141 0.943-0.391s0.391-0.589 0.391-0.943v-26.667c0-0.354-0.141-0.693-0.391-0.943s-0.589-0.391-0.943-0.391z"></path>
</symbol>
<symbol id="icon-minus_circle" viewBox="0 0 32 32">
<path d="M0 16c0-8.832 7.168-16 16-16s16 7.168 16 16c0 8.832-7.168 16-16 16s-16-7.168-16-16zM8 17.6h16v-3.2h-16v3.2z"></path>
</symbol>
<symbol id="icon-plus_circle" viewBox="0 0 32 32">
<path d="M0 16c0-8.832 7.168-16 16-16s16 7.168 16 16c0 8.832-7.168 16-16 16s-16-7.168-16-16zM17.6 17.6h6.4v-3.2h-6.4v-6.4h-3.2v6.4h-6.4v3.2h6.4v6.4h3.2v-6.4z"></path>
</symbol>
</defs>
</svg>
